<svg width="27" height="24" viewBox="0 0 27 24" fill="none" xmlns="http://www.w3.org/2000/svg">
<path fill-rule="evenodd" clip-rule="evenodd" d="M23.8378 24C23.7162 24 23.473 24 23.3514 23.8806L21.527 22.6866C21.2838 22.5672 20.7973 22.4478 20.4324 22.4478C20.4324 22.4478 20.4324 22.4478 20.3108 22.4478C20.0676 22.4478 19.8243 22.4478 19.5811 22.4478C15.4459 22.4478 12.1622 19.7015 12.1622 16.2388C12.1622 12.7761 15.4459 10.0298 19.5811 10.0298C23.7162 10.0298 27 12.7761 27 16.2388C27 17.791 26.2703 19.3433 25.0541 20.4179C24.8108 20.6567 24.5676 21.1343 24.5676 21.4925V23.2836C24.5676 23.7612 24.2027 24 23.8378 24ZM0 9.67164C0 12.1791 1.09459 14.4478 3.04054 16.1194C3.52703 16.597 4.01351 17.5522 4.01351 18.2687L4.25676 21.4925C4.25676 22.209 4.62162 22.209 5.22973 21.7313L8.27027 19.8209C8.87838 19.4627 9.97297 19.2239 10.5811 19.2239C10.7027 19.2239 10.9459 19.2239 11.1892 19.2239C11.5541 19.2239 11.6757 18.9851 11.5541 18.6269C11.1892 17.9104 10.9459 16.9552 10.9459 16.1194C10.9459 12.0597 14.7162 8.95522 19.4595 8.95522C20.6757 8.95522 22.0135 9.31343 22.7432 9.43283C23.1081 9.55224 23.473 9.31343 23.473 8.95522C22.9865 3.8209 18 0 11.7973 0C5.22973 0 0 4.1791 0 9.67164Z" fill="white"/>
</svg>
