<svg width="200" height="59" viewBox="0 0 200 59" fill="none" xmlns="http://www.w3.org/2000/svg">
<path fill-rule="evenodd" clip-rule="evenodd" d="M2.46829 11.5941H8.95397C10.148 11.5941 11.1159 12.5619 11.1159 13.756V40.943C11.1159 42.1371 10.148 43.1049 8.95397 43.1049H2.46829C1.27422 43.1049 0.306396 42.1371 0.306396 40.943V13.756C0.306396 12.5619 1.27422 11.5941 2.46829 11.5941Z" fill="black"/>
<path fill-rule="evenodd" clip-rule="evenodd" d="M15.5147 11.5941H42.7772C43.9712 11.5941 44.9391 12.5619 44.9391 13.756V40.943C44.9391 42.1371 43.9712 43.1049 42.7772 43.1049H15.5147C14.3206 43.1049 13.3528 42.1371 13.3528 40.943V13.756C13.3528 12.5619 14.3332 11.5941 15.5147 11.5941Z" fill="#E3000F"/>
<path fill-rule="evenodd" clip-rule="evenodd" d="M2.46829 3.86398H43.6448C44.8389 3.86398 45.8067 4.83181 45.8067 6.02588V7.03141C45.8067 8.22548 44.8389 9.1933 43.6448 9.1933H2.46829C1.27422 9.1933 0.306396 8.22548 0.306396 7.03141V6.02588C0.306396 4.84438 1.27422 3.86398 2.46829 3.86398Z" fill="#B1B2B3"/>
<path d="M80.364 33.3388C80.364 34.9326 80.0671 36.331 79.4734 37.5341C78.8796 38.7373 78.075 39.7451 77.0593 40.5576C76.0437 41.3545 74.8562 41.956 73.4968 42.3623C72.1375 42.7685 70.6843 42.9716 69.1375 42.9716C68.0906 42.9716 67.114 42.8857 66.2078 42.7138C65.3171 42.542 64.5281 42.3388 63.8406 42.1045C63.1531 41.8545 62.575 41.5966 62.1062 41.331C61.6531 41.0654 61.325 40.831 61.1218 40.6279C60.9187 40.4248 60.7703 40.1357 60.6765 39.7607C60.5984 39.3701 60.5593 38.8154 60.5593 38.0966C60.5593 37.6123 60.575 37.206 60.6062 36.8779C60.6375 36.5498 60.6843 36.2841 60.7468 36.081C60.825 35.8779 60.9187 35.7373 61.0281 35.6591C61.1531 35.5654 61.2937 35.5185 61.45 35.5185C61.6687 35.5185 61.9734 35.6513 62.364 35.917C62.7703 36.167 63.2859 36.4482 63.9109 36.7607C64.5359 37.0732 65.2781 37.3623 66.1375 37.6279C67.0125 37.8779 68.0203 38.0029 69.1609 38.0029C69.9109 38.0029 70.5828 37.917 71.1765 37.7451C71.7703 37.5576 72.2703 37.2998 72.6765 36.9716C73.0984 36.6435 73.4187 36.2373 73.6375 35.7529C73.8562 35.2685 73.9656 34.7295 73.9656 34.1357C73.9656 33.4482 73.7781 32.8623 73.4031 32.3779C73.0281 31.8779 72.5359 31.4404 71.9265 31.0654C71.3328 30.6748 70.6531 30.3154 69.8875 29.9873C69.1218 29.6435 68.3328 29.2841 67.5203 28.9091C66.7078 28.5341 65.9187 28.1123 65.1531 27.6435C64.3875 27.1591 63.7 26.5888 63.0906 25.9326C62.4968 25.2607 62.0125 24.4716 61.6375 23.5654C61.2625 22.6591 61.075 21.5732 61.075 20.3076C61.075 18.8545 61.3406 17.581 61.8718 16.4873C62.4187 15.3779 63.1453 14.4638 64.0515 13.7451C64.9734 13.0107 66.0515 12.4638 67.2859 12.1045C68.5359 11.7451 69.8562 11.5654 71.2468 11.5654C71.9656 11.5654 72.6843 11.6201 73.4031 11.7295C74.1218 11.8388 74.7937 11.9873 75.4187 12.1748C76.0437 12.3623 76.5984 12.5732 77.0828 12.8076C77.5671 13.042 77.8875 13.2373 78.0437 13.3935C78.2 13.5498 78.3015 13.6826 78.3484 13.792C78.4109 13.9013 78.4578 14.0498 78.489 14.2373C78.5359 14.4091 78.5671 14.6357 78.5828 14.917C78.5984 15.1826 78.6062 15.5185 78.6062 15.9248C78.6062 16.3779 78.5906 16.7607 78.5593 17.0732C78.5437 17.3857 78.5046 17.6435 78.4421 17.8466C78.3953 18.0498 78.3171 18.1982 78.2078 18.292C78.114 18.3857 77.9812 18.4326 77.8093 18.4326C77.6375 18.4326 77.364 18.3232 76.989 18.1045C76.614 17.8857 76.1531 17.6513 75.6062 17.4013C75.0593 17.1357 74.4265 16.9013 73.7078 16.6982C72.989 16.4795 72.2 16.3701 71.3406 16.3701C70.6687 16.3701 70.0828 16.456 69.5828 16.6279C69.0828 16.7841 68.6609 17.0107 68.3171 17.3076C67.989 17.5888 67.739 17.9326 67.5671 18.3388C67.4109 18.7451 67.3328 19.1748 67.3328 19.6279C67.3328 20.2998 67.5125 20.8857 67.8718 21.3857C68.2468 21.8701 68.739 22.3076 69.3484 22.6982C69.9734 23.0732 70.6765 23.4326 71.4578 23.7763C72.239 24.1045 73.0359 24.456 73.8484 24.831C74.6609 25.206 75.4578 25.6357 76.239 26.1201C77.0203 26.5888 77.7156 27.1591 78.325 27.831C78.9343 28.4873 79.4265 29.2685 79.8015 30.1748C80.1765 31.0654 80.364 32.1201 80.364 33.3388ZM112.356 26.917C112.356 29.4326 112.044 31.6826 111.419 33.667C110.794 35.6513 109.864 37.3388 108.63 38.7295C107.395 40.1045 105.864 41.1591 104.036 41.8935C102.223 42.6123 100.122 42.9716 97.7312 42.9716C95.3718 42.9716 93.3093 42.667 91.5437 42.0576C89.7937 41.4326 88.3328 40.4873 87.1609 39.2216C85.989 37.956 85.1062 36.3466 84.5125 34.3935C83.9343 32.4404 83.6453 30.1279 83.6453 27.456C83.6453 25.0029 83.9578 22.7998 84.5828 20.8466C85.2078 18.8779 86.1375 17.206 87.3718 15.831C88.6062 14.456 90.1296 13.4013 91.9421 12.667C93.7703 11.9326 95.8875 11.5654 98.2937 11.5654C100.591 11.5654 102.614 11.8701 104.364 12.4795C106.13 13.0888 107.598 14.0263 108.77 15.292C109.958 16.5576 110.848 18.1591 111.442 20.0966C112.052 22.0185 112.356 24.292 112.356 26.917ZM105.887 27.2451C105.887 25.6513 105.762 24.206 105.512 22.9091C105.262 21.5966 104.833 20.4795 104.223 19.5576C103.63 18.6201 102.833 17.9013 101.833 17.4013C100.833 16.8857 99.5828 16.6279 98.0828 16.6279C96.5671 16.6279 95.3015 16.917 94.2859 17.4951C93.2703 18.0576 92.45 18.8154 91.825 19.7685C91.2 20.7216 90.7546 21.8388 90.489 23.1201C90.239 24.3857 90.114 25.7295 90.114 27.1513C90.114 28.8076 90.239 30.2998 90.489 31.6279C90.739 32.9404 91.1609 34.0654 91.7546 35.0029C92.3484 35.9404 93.1453 36.6591 94.1453 37.1591C95.1453 37.6435 96.4031 37.8857 97.9187 37.8857C99.4343 37.8857 100.7 37.6045 101.716 37.042C102.731 36.4795 103.552 35.7138 104.177 34.7451C104.802 33.7763 105.239 32.6513 105.489 31.3701C105.755 30.0732 105.887 28.6982 105.887 27.2451ZM134.223 39.8545C134.223 40.3232 134.2 40.7216 134.153 41.0498C134.122 41.3623 134.067 41.6279 133.989 41.8466C133.911 42.0498 133.809 42.1982 133.684 42.292C133.575 42.3857 133.442 42.4326 133.286 42.4326H119.387C118.872 42.4326 118.434 42.2841 118.075 41.9873C117.731 41.6748 117.559 41.1748 117.559 40.4873V12.9482C117.559 12.792 117.606 12.6513 117.7 12.5263C117.809 12.4013 117.981 12.2998 118.216 12.2216C118.45 12.1435 118.762 12.081 119.153 12.0341C119.559 11.9873 120.059 11.9638 120.653 11.9638C121.262 11.9638 121.762 11.9873 122.153 12.0341C122.544 12.081 122.856 12.1435 123.091 12.2216C123.325 12.2998 123.489 12.4013 123.583 12.5263C123.692 12.6513 123.747 12.792 123.747 12.9482V37.3466H133.286C133.442 37.3466 133.575 37.3935 133.684 37.4873C133.809 37.5654 133.911 37.706 133.989 37.9091C134.067 38.0966 134.122 38.3545 134.153 38.6826C134.2 38.9951 134.223 39.3857 134.223 39.8545Z" fill="black"/>
<path d="M163.052 26.8232C163.052 29.6045 162.684 31.9873 161.95 33.9716C161.231 35.9404 160.192 37.5498 158.833 38.7998C157.473 40.0498 155.817 40.9716 153.864 41.5654C151.927 42.1435 149.614 42.4326 146.927 42.4326H139.684C139.169 42.4326 138.731 42.2841 138.372 41.9873C138.028 41.6748 137.856 41.1748 137.856 40.4873V14.0498C137.856 13.3623 138.028 12.8701 138.372 12.5732C138.731 12.2607 139.169 12.1045 139.684 12.1045H147.466C150.169 12.1045 152.458 12.4248 154.333 13.0654C156.223 13.6904 157.809 14.6279 159.091 15.8779C160.387 17.1123 161.372 18.6435 162.044 20.4716C162.716 22.2998 163.052 24.417 163.052 26.8232ZM156.677 27.0341C156.677 25.5966 156.505 24.2607 156.161 23.0263C155.833 21.792 155.294 20.7216 154.544 19.8154C153.809 18.9091 152.856 18.206 151.684 17.706C150.528 17.1904 149.005 16.9326 147.114 16.9326H143.997V37.5576H147.208C148.895 37.5576 150.317 37.3388 151.473 36.9013C152.63 36.4638 153.591 35.8076 154.356 34.9326C155.137 34.042 155.716 32.9404 156.091 31.6279C156.481 30.3154 156.677 28.7841 156.677 27.0341ZM191.856 40.1357C192.044 40.6982 192.161 41.1435 192.208 41.4716C192.255 41.7998 192.192 42.0498 192.02 42.2216C191.848 42.3779 191.544 42.4716 191.106 42.5029C190.669 42.5498 190.067 42.5732 189.302 42.5732C188.505 42.5732 187.88 42.5576 187.427 42.5263C186.989 42.5107 186.653 42.4716 186.419 42.4091C186.184 42.331 186.02 42.2295 185.927 42.1045C185.833 41.9795 185.755 41.8154 185.692 41.6123L183.653 35.5185H172.262L170.341 41.4482C170.278 41.667 170.192 41.8545 170.083 42.0107C169.989 42.1513 169.825 42.2685 169.591 42.3623C169.372 42.4404 169.052 42.4951 168.63 42.5263C168.223 42.5576 167.684 42.5732 167.012 42.5732C166.294 42.5732 165.731 42.5498 165.325 42.5029C164.919 42.456 164.637 42.3466 164.481 42.1748C164.325 41.9873 164.27 41.7295 164.317 41.4013C164.364 41.0732 164.481 40.6357 164.669 40.0888L174.02 13.1826C174.114 12.917 174.223 12.706 174.348 12.5498C174.473 12.3779 174.669 12.2529 174.934 12.1748C175.216 12.081 175.598 12.0263 176.083 12.0107C176.567 11.9795 177.208 11.9638 178.005 11.9638C178.927 11.9638 179.661 11.9795 180.208 12.0107C180.755 12.0263 181.177 12.081 181.473 12.1748C181.786 12.2529 182.005 12.3779 182.13 12.5498C182.27 12.7216 182.387 12.956 182.481 13.2529L191.856 40.1357ZM177.934 17.8935H177.911L173.622 30.7841H182.223L177.934 17.8935Z" fill="#E3000F"/>
</svg>
