<svg width="24" height="24" viewBox="0 0 24 24" fill="none" xmlns="http://www.w3.org/2000/svg">
<path fill-rule="evenodd" clip-rule="evenodd" d="M21.48 5.52C21 4.92 20.04 4.92 19.44 5.52L18.36 6.48C17.76 7.08 17.76 7.92 18.24 8.52C19.08 9.72 19.56 11.16 19.56 12.6C19.56 16.56 16.2 19.92 12 19.92C7.8 19.92 4.44 16.68 4.44 12.6C4.44 11.16 4.92 9.72 5.76 8.52C6.24 7.92 6.24 6.96 5.64 6.48L4.56 5.4C3.96 4.8 3 4.8 2.52 5.4C0.84 7.44 0 9.96 0 12.48C0 18.84 5.4 24 12 24C18.6 24 24 18.84 24 12.6C24 9.96 23.16 7.44 21.48 5.52ZM12 10.32C13.2 10.32 14.16 9.36 14.16 8.28V2.04C14.16 0.96 13.2 0 12 0C10.8 0 9.84 0.96 9.84 2.04V8.16C9.84 9.36 10.8 10.32 12 10.32Z" fill="white"/>
</svg>
