<svg width="14" height="14" viewBox="0 0 14 14" fill="none" xmlns="http://www.w3.org/2000/svg">
<path fill-rule="evenodd" clip-rule="evenodd" d="M7.00128 9.21519C5.73403 9.21519 4.70817 8.21097 4.70817 7.02954C4.70817 5.78903 5.73403 4.84388 7.00128 4.84388C8.26852 4.84388 9.29438 5.8481 9.29438 7.02954C9.29438 8.21097 8.26852 9.21519 7.00128 9.21519ZM12.6737 6.02532L13.6996 5.49367C14.0013 5.31646 14.122 4.96203 13.9409 4.60759L12.8547 2.65823C12.6737 2.36287 12.2513 2.24473 11.9496 2.42194L10.9237 2.95359C10.622 3.1308 10.1392 3.07173 9.83748 2.89451C9.71679 2.83544 9.53576 2.7173 9.41507 2.65823C9.11334 2.48101 8.81162 2.12658 8.81162 1.77215V0.649789C8.81162 0.295359 8.5099 0 8.14783 0H5.85472C5.49265 0 5.19093 0.295359 5.19093 0.649789V1.77215C5.19093 2.12658 4.88921 2.48101 4.58748 2.65823C4.46679 2.7173 4.40645 2.77637 4.28576 2.83544C3.98403 3.01266 3.50128 3.07173 3.19955 2.89451L2.41507 2.48101C2.053 2.3038 1.69093 2.36287 1.5099 2.65823L0.363345 4.60759C0.182311 4.90295 0.303 5.31646 0.604724 5.49367L1.38921 5.90717C1.69093 6.08439 1.93231 6.49789 1.87197 6.85232C1.87197 6.91139 1.87197 7.02954 1.87197 7.08861C1.87197 7.44304 1.69093 7.85654 1.32886 8.03376L0.303 8.5654C0.00127611 8.74262 -0.119414 9.09705 0.0616209 9.45148L1.20817 11.3418C1.38921 11.6371 1.75128 11.7553 2.11334 11.5781L3.13921 11.0464C3.44093 10.8692 3.92369 10.9283 4.22541 11.1055C4.3461 11.1646 4.52714 11.2827 4.64783 11.3418C4.94955 11.519 5.25128 11.8734 5.25128 12.2278V13.3502C5.25128 13.7046 5.553 14 5.91507 14H8.20817C8.57024 14 8.87196 13.7046 8.87196 13.3502V12.2278C8.87196 11.8734 9.17369 11.519 9.47541 11.3418C9.5961 11.2827 9.71679 11.2236 9.83748 11.1646C10.1392 10.9873 10.622 10.9283 10.9237 11.1055L11.7082 11.519C12.0099 11.6962 12.4323 11.5781 12.6133 11.2827L13.7599 9.33333C13.9409 9.03797 13.8202 8.62447 13.5185 8.44726L12.734 8.03376C12.4323 7.85654 12.2513 7.44304 12.2513 7.08861C12.2513 7.02954 12.2513 6.91139 12.2513 6.85232C12.1306 6.61603 12.3116 6.20253 12.6737 6.02532Z" fill="white"/>
</svg>
