<svg width="30" height="28" viewBox="0 0 30 28" fill="none" xmlns="http://www.w3.org/2000/svg">
<path fill-rule="evenodd" clip-rule="evenodd" d="M5.34413 17.6092C8.38057 18.801 11.6599 19.397 14.9393 19.397C18.2186 19.397 21.498 18.9202 24.5344 17.6092C26.7206 16.7749 29.6356 14.9872 29.8785 12.4844C29.8785 12.0076 29.3927 11.7693 29.0283 12.1268L28.9069 12.246C27.085 13.7954 24.7773 14.7488 22.4696 15.4639C19.7976 16.179 17.1255 16.4174 14.332 16.4174C11.7814 16.4174 9.10931 16.0598 6.68016 15.2256C4.49393 14.5105 2.42915 13.6762 0.850202 12.1268C0.48583 11.8885 0 12.1268 0 12.4844C0.121457 14.9872 3.15789 16.7749 5.34413 17.6092ZM29.0283 16.4174C28.9069 16.4174 28.9069 16.5366 29.0283 16.4174C27.085 18.0859 24.7773 19.0394 22.4696 19.6353C19.7976 20.3504 17.1255 20.5888 14.332 20.5888C11.7814 20.5888 9.10931 20.2312 6.68016 19.397C4.61538 18.801 2.55061 17.8476 0.97166 16.4174C0.48583 16.179 0 16.4174 0 16.7749C0.121457 19.2778 3.15789 21.0655 5.34413 21.8998C8.38057 23.0916 11.6599 23.6875 14.9393 23.6875C18.2186 23.6875 21.498 23.2108 24.5344 21.8998C26.7206 21.0655 29.6356 19.2778 29.8785 16.7749C29.8785 16.4174 29.2713 16.179 29.0283 16.4174ZM29.0283 20.708C28.9069 20.708 28.9069 20.8271 29.0283 20.708C27.085 22.3765 24.7773 23.33 22.4696 23.9259C19.7976 24.641 17.1255 24.8794 14.332 24.8794C11.7814 24.8794 9.10931 24.5218 6.68016 23.6875C4.61538 23.0916 2.55061 22.1382 0.97166 20.708C0.48583 20.4696 0 20.5888 0 21.0655C0.121457 23.4492 2.91498 25.2369 4.97976 26.0712C7.77328 27.263 10.9312 27.8589 13.9676 27.9781C17.1255 28.0973 20.4049 27.7397 23.4413 26.6671C25.8704 25.8328 29.1498 24.4026 29.8785 21.6614C29.8785 21.4231 30 21.1847 30 21.0655C29.8785 20.5888 29.2713 20.4696 29.0283 20.708ZM15.7895 4.61832C15.4251 4.61832 15.0607 4.61832 14.6964 4.61832C14.332 4.61832 14.0891 4.61832 13.8462 4.61832V7.00197C13.9676 7.00197 14.0891 7.00197 14.2105 7.00197C14.332 7.00197 14.5749 7.00197 14.6964 7.00197C14.8178 7.00197 15.0607 7.00197 15.1822 7.00197C15.3036 7.00197 15.4251 7.00197 15.5466 7.00197C16.0324 7.00197 16.5182 7.00197 17.1255 7.00197C17.6113 7.00197 18.0972 6.88279 18.4615 6.76361C18.8259 6.64443 19.1903 6.52524 19.4332 6.40606C19.6761 6.28688 19.7976 6.04851 19.7976 5.69097C19.7976 5.4526 19.6761 5.21424 19.4332 5.09505C19.1903 4.97587 18.9474 4.85669 18.4615 4.73751C18.0972 4.61832 17.6113 4.61832 17.1255 4.61832C16.7611 4.61832 16.2753 4.61832 15.7895 4.61832ZM9.95951 3.30731C10.8097 3.18813 11.6599 3.18813 12.6316 3.18813C13.6032 3.18813 14.5749 3.18813 15.5466 3.18813C16.5182 3.18813 17.4899 3.18813 18.583 3.30731C19.5547 3.4265 20.5263 3.54568 21.2551 3.66486C22.1053 3.90323 22.7125 4.14159 23.1984 4.49914C23.6842 4.85669 23.9271 5.33342 23.9271 5.92933C23.9271 6.40606 23.6842 6.88279 23.3198 7.24034C22.834 7.59789 22.3482 7.83625 21.498 8.07462C20.7692 8.31298 19.919 8.43216 18.9474 8.55135C17.9757 8.67053 17.004 8.67053 16.0324 8.67053C15.9109 8.67053 15.7895 8.67053 15.5466 8.67053C15.3036 8.67053 15.0607 8.67053 14.8178 8.67053C14.5749 8.67053 14.332 8.67053 14.0891 8.67053C13.8462 8.67053 13.7247 8.67053 13.6032 8.67053V9.86236H19.4332V11.4117H13.6032V12.8419H9.95951V11.4117H8.25911V9.86236H10.081V3.30731H9.95951ZM2.55061 11.7693C5.10121 13.6762 8.50202 14.5105 11.5385 14.868C14.9393 15.2256 18.4615 15.1064 21.7409 14.1529C24.5344 13.4378 28.1781 12.0076 29.3927 9.14726C30.3644 7.12116 29.2713 5.21424 27.6923 3.78405C25.749 2.11549 23.1984 1.16203 20.7692 0.566117C19.0688 0.208569 18.4615 0.208569 16.5182 0.0893869C15.668 -0.0297956 14.0891 -0.0297956 12.996 0.0893869C11.6599 0.446934 8.8664 0.685299 6.07287 1.75794C4.0081 2.47304 1.82186 3.66486 0.728745 5.4526C-0.850202 7.83625 0.48583 10.2199 2.55061 11.7693Z" fill="black" fill-opacity="0.3"/>
</svg>
