<svg width="13" height="13" viewBox="0 0 13 13" fill="none" xmlns="http://www.w3.org/2000/svg">
<path fill-rule="evenodd" clip-rule="evenodd" d="M6.00943 4.66038C6.00943 4.84434 6.07075 5.0283 6.25472 5.21226C6.43868 5.33491 6.62264 5.45755 6.86792 5.58019V3.86321C6.56132 3.86321 6.31604 3.98585 6.1934 4.10849C6.07075 4.23113 6.00943 4.41509 6.00943 4.66038ZM7.9717 8.21698C7.9717 7.9717 7.91038 7.78774 7.72642 7.66509C7.54245 7.54245 7.35849 7.35849 7.05189 7.29717V9.19811C7.35849 9.13679 7.60377 9.07547 7.72642 8.89151C7.91038 8.70755 7.9717 8.46226 7.9717 8.21698ZM6.37736 10.3632C5.94811 10.3632 5.64151 10.3019 5.33491 10.2406C5.0283 10.1792 4.78302 10.1179 4.59906 9.99528L5.0283 8.83019C5.15094 8.89151 5.33491 8.95283 5.58019 9.07547C5.82547 9.13679 6.07075 9.19811 6.37736 9.19811V7.05189C6.13207 6.92924 5.94811 6.86792 5.70283 6.74528C5.45755 6.62264 5.27358 6.5 5.15094 6.31604C4.96698 6.13208 4.84434 5.94811 4.7217 5.70283C4.66038 5.39623 4.59906 5.08962 4.59906 4.78302C4.59906 4.16981 4.78302 3.67924 5.08962 3.37264C5.39623 3.06604 5.82547 2.82075 6.37736 2.69811V1.7783H7.48113V2.69811C7.78774 2.69811 8.03302 2.75943 8.2783 2.82075C8.52358 2.88208 8.70755 2.9434 8.95283 3.06604L8.58491 4.16981C8.46226 4.10849 8.33962 4.04717 8.15566 3.98585C7.9717 3.92453 7.78774 3.86321 7.54245 3.86321V5.82547C7.78774 5.94811 7.9717 6.00943 8.21698 6.13208C8.46226 6.25472 8.64623 6.37736 8.83019 6.56132C9.01415 6.74528 9.13679 6.92924 9.25943 7.17453C9.38208 7.41981 9.4434 7.66509 9.4434 7.9717C9.4434 8.64623 9.25943 9.13679 8.95283 9.50472C8.64623 9.87264 8.15566 10.1179 7.60377 10.1792V11.1604H6.5V10.3632H6.37736ZM6.5 0C10.1179 0 13 2.9434 13 6.5C13 10.1179 10.0566 13 6.5 13C2.9434 13 0 10.1179 0 6.5C0 2.9434 2.9434 0 6.5 0Z" fill="white"/>
</svg>
