<svg width="24" height="24" viewBox="0 0 24 24" fill="none" xmlns="http://www.w3.org/2000/svg">
<path fill-rule="evenodd" clip-rule="evenodd" d="M13.9536 6.58602C13.7303 6.80927 13.5071 6.9209 13.1722 6.9209C12.8373 6.9209 12.614 6.80927 12.3908 6.58602C12.1675 6.36276 12.0559 6.02788 12.0559 5.80462C12.0559 5.46974 12.1675 5.13486 12.3908 4.9116C12.614 4.68834 12.8373 4.57672 13.1722 4.57672C13.5071 4.57672 13.842 4.68834 13.9536 4.9116C14.1768 5.13486 14.2885 5.35811 14.2885 5.693C14.2885 6.02788 14.1768 6.36276 13.9536 6.58602ZM13.5071 17.6372C12.9489 17.8604 12.5024 17.9721 12.1675 18.0837C11.8327 18.1953 11.6094 18.1953 11.2745 18.1953C10.828 18.1953 10.4931 18.0837 10.1582 17.8604C9.93498 17.6372 9.82335 17.3023 9.82335 16.9674C9.82335 16.8558 9.82335 16.6325 9.82335 16.5209C10.0466 16.4093 10.0466 16.186 10.0466 15.9628L10.9396 12.1674C10.9396 11.9442 11.0513 11.7209 11.0513 11.4976C11.0513 11.2744 11.1629 11.0511 11.1629 10.9395C11.1629 10.6046 11.1629 10.3814 11.0513 10.2697C10.9396 10.1581 10.7164 10.0465 10.3815 10.0465C10.2699 10.0465 10.0466 10.0465 9.82335 10.1581C9.60009 10.1581 9.48847 10.2697 9.37684 10.2697L9.48847 9.7116C10.0466 9.48834 10.3815 9.37672 10.828 9.26509C11.1629 9.15346 11.4978 9.15346 11.721 9.15346C12.1675 9.15346 12.614 9.26509 12.8373 9.48834C13.0606 9.7116 13.1722 10.0465 13.1722 10.3814C13.1722 10.493 13.1722 10.6046 13.1722 10.8279C13.1722 11.0511 13.0606 11.1628 13.0606 11.386L12.0559 15.1814C11.9443 15.4046 11.9443 15.6279 11.9443 15.8511C11.9443 16.0744 11.8327 16.2976 11.8327 16.4093C11.8327 16.7442 11.9443 16.9674 12.0559 17.079C12.1675 17.1907 12.5024 17.3023 12.8373 17.3023C12.9489 17.3023 13.0606 17.3023 13.2838 17.3023C13.5071 17.3023 13.6187 17.1907 13.7303 17.1907L13.5071 17.6372ZM20.5396 3.57207C15.8513 -1.11631 8.26056 -1.11631 3.57219 3.57207C-1.11618 8.26044 -1.11618 15.8511 3.57219 20.5395C8.26056 25.2279 15.8513 25.2279 20.5396 20.5395C25.228 15.8511 25.228 8.26044 20.5396 3.57207Z" fill="white"/>
</svg>
