<svg width="212" height="45" viewBox="0 0 212 45" fill="none" xmlns="http://www.w3.org/2000/svg">
<g clip-path="url(#clip0_6_321)">
<path fill-rule="evenodd" clip-rule="evenodd" d="M2.42088 8.8269H9.85644C11.2398 8.8269 12.2773 9.86537 12.2773 11.25V42.4038C12.2773 43.7884 11.2398 44.8269 9.85644 44.8269H2.42088C1.03752 45 0 43.9615 0 42.5769V11.4231C0 10.0384 1.03752 8.8269 2.42088 8.8269Z" fill="black"/>
<path fill-rule="evenodd" clip-rule="evenodd" d="M17.4648 8.8269H48.7634C50.1467 8.8269 51.1842 9.86537 51.1842 11.25V42.4038C51.1842 43.7884 50.1467 44.8269 48.7634 44.8269H17.4648C16.0815 44.8269 15.0439 43.7884 15.0439 42.4038V11.25C15.0439 10.0384 16.0815 8.8269 17.4648 8.8269Z" fill="#E30613"/>
<path fill-rule="evenodd" clip-rule="evenodd" d="M2.42088 0H49.6281C51.0114 0 52.0489 1.03846 52.0489 2.42308V3.63462C52.0489 5.01923 51.0114 6.05769 49.6281 6.05769H2.42088C1.03752 6.05769 0 5.01923 0 3.63462V2.42308C0 1.03846 1.03752 0 2.42088 0Z" fill="#B2B2B2"/>
<path d="M146.809 41.5384C146.809 42.0577 146.809 42.5769 146.809 42.923C146.809 43.2692 146.636 43.6154 146.636 43.7884C146.463 43.9615 146.463 44.1346 146.29 44.3077C146.117 44.4807 145.945 44.4807 145.772 44.4807H130.209C129.69 44.4807 129.171 44.3077 128.825 43.9615C128.48 43.6154 128.307 43.0961 128.307 42.2307V11.25C128.307 11.0769 128.307 10.9038 128.48 10.7307C128.653 10.5577 128.825 10.3846 128.998 10.3846C129.344 10.2115 129.69 10.2115 130.036 10.2115C130.555 10.2115 131.073 10.2115 131.765 10.2115C132.457 10.2115 132.975 10.2115 133.494 10.2115C134.013 10.2115 134.359 10.3846 134.532 10.3846C134.878 10.3846 135.051 10.5577 135.051 10.7307C135.223 10.9038 135.223 11.0769 135.223 11.25V38.5961H145.945C146.117 38.5961 146.29 38.5961 146.463 38.7692C146.636 38.9423 146.636 39.1154 146.809 39.2884C146.982 39.4615 146.982 39.8077 146.982 40.1538C146.809 40.5 146.809 41.0192 146.809 41.5384ZM114.992 27.3461C114.992 25.6154 114.819 23.8846 114.646 22.5C114.3 21.1154 113.954 19.7307 113.263 18.6923C112.571 17.6538 111.706 16.7884 110.496 16.2692C109.458 15.75 107.902 15.4038 106.346 15.4038C104.617 15.4038 103.233 15.75 102.023 16.4423C100.812 17.1346 99.9478 18 99.2561 19.0384C98.5644 20.0769 98.0457 21.2884 97.6998 22.8461C97.354 24.2307 97.354 25.7884 97.354 27.3461C97.354 29.25 97.5269 30.8077 97.6998 32.3654C98.0457 33.923 98.3915 35.1346 99.0832 36.173C99.7748 37.2115 100.639 38.0769 101.85 38.5961C102.887 39.1154 104.444 39.4615 106.173 39.4615C107.902 39.4615 109.285 39.1154 110.496 38.423C111.706 37.7307 112.571 36.8654 113.263 35.8269C113.954 34.7884 114.473 33.4038 114.819 32.0192C114.819 30.4615 114.992 28.9038 114.992 27.3461ZM122.254 27C122.254 29.7692 121.909 32.3654 121.217 34.6154C120.525 36.8654 119.488 38.7692 118.104 40.3269C116.721 41.8846 114.992 43.0961 112.917 43.9615C110.842 44.8269 108.421 45.173 105.827 45.173C103.233 45.173 100.812 44.8269 98.9103 44.1346C97.0081 43.4423 95.2789 42.4038 93.8956 41.0192C92.5122 39.6346 91.6476 37.7307 90.9559 35.6538C90.2642 33.4038 89.9184 30.8077 89.9184 27.8654C89.9184 25.0961 90.2642 22.673 90.9559 20.423C91.6476 18.173 92.6851 16.2692 94.0685 14.8846C95.4519 13.3269 97.1811 12.1154 99.2561 11.25C101.331 10.3846 103.752 10.0384 106.346 10.0384C108.94 10.0384 111.188 10.3846 113.263 11.0769C115.165 11.7692 116.894 12.8077 118.277 14.1923C119.661 15.5769 120.525 17.4807 121.217 19.5577C121.909 21.4615 122.254 24.0577 122.254 27ZM86.2871 34.2692C86.2871 36 85.9412 37.5577 85.2496 38.9423C84.5579 40.3269 83.6933 41.3654 82.4828 42.4038C81.2724 43.2692 80.062 43.9615 78.5057 44.4807C76.9494 45 75.3931 45.173 73.6639 45.173C72.4535 45.173 71.416 45 70.3784 44.8269C69.3409 44.6538 68.4763 44.4807 67.7846 44.1346C67.093 43.7884 66.4013 43.6154 65.8825 43.2692C65.3638 42.923 65.0179 42.75 64.845 42.4038C64.6721 42.2307 64.4992 41.8846 64.3262 41.3654C64.1533 41.0192 64.1533 40.3269 64.1533 39.4615C64.1533 38.9423 64.1533 38.423 64.1533 38.0769C64.1533 37.7307 64.3262 37.3846 64.3262 37.2115C64.3262 37.0384 64.4992 36.8654 64.6721 36.6923C64.845 36.5192 65.0179 36.5192 65.1908 36.5192C65.3638 36.5192 65.7096 36.6923 66.2284 36.8654C66.7471 37.2115 67.2659 37.5577 67.9576 37.9038C68.6492 38.25 69.5138 38.5961 70.3784 38.9423C71.416 39.2884 72.4535 39.2884 73.8368 39.2884C74.7014 39.2884 75.3931 39.1154 76.0848 38.9423C76.7765 38.7692 77.2952 38.423 77.814 38.0769C78.3328 37.7307 78.6786 37.2115 78.8515 36.6923C79.0244 36.173 79.1974 35.4807 79.1974 34.9615C79.1974 34.2692 79.0244 33.5769 78.5057 33.0577C78.1598 32.5384 77.4682 32.0192 76.7765 31.5C76.0848 31.1538 75.3931 30.6346 74.5285 30.2884C73.6639 29.9423 72.7993 29.423 71.9347 29.0769C71.0701 28.7307 70.2055 28.2115 69.3409 27.6923C68.4763 27.173 67.7846 26.4807 67.093 25.7884C66.4013 25.0961 65.8825 24.2307 65.3638 23.1923C65.0179 22.1538 64.6721 20.9423 64.6721 19.5577C64.6721 18 65.0179 16.4423 65.5367 15.2307C66.0554 14.0192 66.92 12.9807 67.9576 12.1154C69.168 11.423 70.3784 10.7307 71.7618 10.3846C73.1452 10.0384 74.7014 9.86536 76.2577 9.86536C77.1223 9.86536 77.814 9.86536 78.6786 10.0384C79.5432 10.2115 80.2349 10.3846 80.9266 10.5577C81.6182 10.7307 82.3099 11.0769 82.8287 11.25C83.3475 11.5961 83.6933 11.7692 83.8662 11.9423C84.0391 12.1154 84.212 12.2884 84.212 12.4615C84.212 12.6346 84.385 12.8077 84.385 12.9807C84.385 13.1538 84.385 13.5 84.5579 13.673C84.5579 14.0192 84.5579 14.3654 84.5579 14.8846C84.5579 15.4038 84.5579 15.75 84.5579 16.0961C84.5579 16.4423 84.5579 16.7884 84.385 16.9615C84.385 17.1346 84.212 17.3077 84.0391 17.4807C83.8662 17.6538 83.6933 17.6538 83.5204 17.6538C83.3474 17.6538 83.0016 17.4807 82.6558 17.3077C82.3099 17.1346 81.7912 16.7884 81.0995 16.4423C80.4078 16.0961 79.7161 15.923 79.0244 15.5769C78.1598 15.4038 77.2952 15.2307 76.4306 15.2307C75.739 15.2307 75.0473 15.4038 74.5285 15.5769C74.0098 15.75 73.491 16.0961 73.1452 16.2692C72.7993 16.6154 72.4535 16.9615 72.2806 17.4807C72.1076 18 71.9347 18.3461 71.9347 18.8654C71.9347 19.5577 72.1076 20.25 72.6264 20.7692C72.9722 21.2884 73.6639 21.8077 74.3556 22.3269C75.0473 22.673 75.9119 23.1923 76.7765 23.5384C77.6411 23.8846 78.5057 24.4038 79.5432 24.75C80.4078 25.0961 81.2724 25.6154 82.3099 26.1346C83.1745 26.6538 84.0391 27.3461 84.7308 28.0384C85.4225 28.7307 85.9412 29.5961 86.46 30.6346C86.1142 31.673 86.2871 32.8846 86.2871 34.2692Z" fill="black"/>
<path d="M195.918 16.7885L191.077 31.327H200.76L195.918 16.7885ZM211.481 41.8846C211.654 42.577 211.827 43.0962 211.827 43.4423C211.827 43.7885 211.827 44.1346 211.654 44.3077C211.481 44.4808 211.135 44.6539 210.617 44.6539C210.098 44.6539 209.406 44.6539 208.542 44.6539C207.677 44.6539 206.985 44.6539 206.466 44.6539C205.948 44.6539 205.602 44.6539 205.256 44.4808C204.91 44.4808 204.737 44.3077 204.737 44.1346C204.564 43.9616 204.564 43.7885 204.391 43.6154L202.143 36.6923H189.347L187.272 43.4423C187.272 43.6154 187.099 43.9616 186.927 44.1346C186.754 44.3077 186.581 44.4808 186.408 44.4808C186.235 44.6539 185.716 44.6539 185.37 44.6539C184.851 44.6539 184.333 44.6539 183.468 44.6539C182.604 44.6539 182.085 44.6539 181.566 44.6539C181.047 44.6539 180.874 44.4808 180.701 44.3077C180.528 44.1346 180.528 43.7885 180.528 43.4423C180.528 43.0962 180.701 42.577 180.874 41.8846L191.422 11.5962C191.595 11.25 191.595 11.077 191.768 10.9039C191.941 10.7308 192.114 10.5577 192.46 10.5577C192.806 10.3846 193.152 10.3846 193.67 10.3846C194.189 10.3846 194.881 10.3846 195.745 10.3846C196.783 10.3846 197.648 10.3846 198.166 10.3846C198.858 10.3846 199.204 10.5577 199.55 10.5577C199.896 10.7308 200.068 10.7308 200.241 11.077C200.414 11.25 200.587 11.5962 200.587 11.9423L211.481 41.8846ZM172.055 27.1731C172.055 25.6154 171.882 24.0577 171.537 22.6731C171.191 21.2885 170.499 20.077 169.635 19.0385C168.77 18 167.732 17.3077 166.349 16.6154C164.966 16.0962 163.409 15.75 161.161 15.75H157.703V38.9423H161.334C163.236 38.9423 164.793 38.7693 166.176 38.25C167.559 37.7308 168.597 37.0385 169.462 36C170.326 34.9616 171.018 33.75 171.364 32.3654C171.882 30.8077 172.055 29.077 172.055 27.1731ZM179.145 26.827C179.145 29.9423 178.799 32.7116 177.935 34.7885C177.07 37.0385 176.033 38.7693 174.476 40.1539C172.92 41.5385 171.018 42.577 168.943 43.2693C166.695 43.9616 164.101 44.3077 161.161 44.3077H153.034C152.515 44.3077 151.997 44.1346 151.651 43.7885C151.305 43.4423 151.132 42.9231 151.132 42.0577V12.4616C151.132 11.7693 151.305 11.077 151.651 10.7308C151.824 10.5577 152.343 10.3846 153.034 10.3846H161.853C164.966 10.3846 167.387 10.7308 169.635 11.4231C171.71 12.1154 173.612 13.1539 174.995 14.5385C176.378 15.9231 177.589 17.6539 178.281 19.7308C178.799 21.8077 179.145 24.2308 179.145 26.827Z" fill="#E30613"/>
</g>
<defs>
<clipPath id="clip0_6_321">
<rect width="212" height="45" fill="white"/>
</clipPath>
</defs>
</svg>
