<svg width="27" height="27" viewBox="0 0 27 27" fill="none" xmlns="http://www.w3.org/2000/svg">
<path fill-rule="evenodd" clip-rule="evenodd" d="M16.5 15.3C14.8 14.5 15.3 13.6 15.3 13.4C15.5 12.7 15.8 12 16 11.3C16.2 10.5 16.3 9.6 16.2 8.8C16.1 7.1 15.2 5.6 13.5 5.6C11.8 5.6 10.9 7.1 10.8 8.8C10.7 9.6 10.8 10.5 11 11.3C11.2 12 11.5 12.7 11.7 13.4C11.7 13.6 12.2 14.5 10.5 15.3C9.3 15.9 7.5 16.5 7 16.7C6.2 17 5.6 17.8 5.6 18.7V19.4C5.6 19.8 5.9 20.1 6.3 20.1C6.3 20.1 7.9 20.5 9.9 21C11.9 21.5 15.2 21.5 17.2 21L20.8 20.1C21.2 20.1 21.5 19.8 21.5 19.4V18.7C21.5 17.8 20.9 17 20.1 16.7C19.5 16.6 17.7 15.9 16.5 15.3ZM13.4 0C20.8 0 26.8 6 26.8 13.4C26.8 20.8 20.8 26.8 13.4 26.8C6 26.9 0 20.9 0 13.4C0 5.9 6 0 13.4 0Z" fill="white"/>
</svg>
