<svg width="25" height="23" viewBox="0 0 25 23" fill="none" xmlns="http://www.w3.org/2000/svg">
<path fill-rule="evenodd" clip-rule="evenodd" d="M12.5105 19.1915C11.6894 19.1915 11.1029 18.5964 11.1029 17.7633C11.1029 16.9301 11.6894 16.3351 12.5105 16.3351C13.3316 16.3351 13.9181 16.9301 13.9181 17.7633C13.9181 18.5964 13.4489 19.1915 12.5105 19.1915ZM11.924 7.52781H13.097C13.4489 7.52781 13.6835 7.88486 13.6835 8.24192L13.4489 14.1928C13.4489 14.5498 13.097 14.9069 12.7451 14.9069H12.2759C11.924 14.9069 11.5721 14.6688 11.5721 14.1928L11.2202 8.24192C11.3375 7.76585 11.5721 7.52781 11.924 7.52781ZM24.3578 18.0013L15.443 2.05304C13.9181 -0.684347 11.3375 -0.684347 9.81262 2.05304L0.663257 17.8823C-0.861636 20.6197 0.311359 22.881 3.47845 22.881L21.5426 23C24.5924 23 25.8827 20.7387 24.3578 18.0013Z" fill="white"/>
</svg>
